<svg width="46" height="42" viewBox="0 0 46 42" fill="none" xmlns="http://www.w3.org/2000/svg">
<g clip-path="url(#clip0_103_7)">
<path d="M23 41.16C35.1945 41.16 45.08 32.1341 45.08 21C45.08 9.86597 35.1945 0.840027 23 0.840027C10.8056 0.840027 0.920013 9.86597 0.920013 21C0.920013 32.1341 10.8056 41.16 23 41.16Z" stroke="black" stroke-width="2" stroke-miterlimit="10" stroke-linecap="round"/>
<path d="M27.5384 29.8435C27.404 28.4894 27.4556 27.5444 27.4556 26.3071C28.1272 25.9854 29.3305 23.9341 29.5338 22.2012C30.0619 22.1617 30.8945 21.6913 31.1383 19.8341C31.2699 18.837 30.7473 18.2759 30.429 18.0995C31.2883 15.7399 33.0731 8.44031 27.128 7.68599C26.5162 6.70487 24.9495 6.20844 22.9135 6.20844C14.7678 6.34536 13.7853 11.8247 15.571 18.0995C15.2536 18.2759 14.731 18.837 14.8617 19.8341C15.1064 21.6913 15.9381 22.1617 16.4662 22.2012C16.6686 23.9333 17.9198 25.9854 18.5932 26.3071C18.5932 27.5444 18.6438 28.4894 18.5095 29.8435C17.3494 32.6911 11.3914 32.9137 7.95432 35.6597C11.5478 38.9634 17.3714 41.3263 23.517 41.3263C29.6626 41.3263 36.8865 36.8962 38.0889 35.6874C34.673 32.9162 28.7012 32.7012 27.5384 29.8435Z" fill="black"/>
</g>
<defs>
<clipPath id="clip0_103_7">
<rect width="46" height="42" fill="white"/>
</clipPath>
</defs>
</svg>
